<svg xmlns="http://www.w3.org/2000/svg" viewBox="0 0 512 512" role="img" aria-label="SatuJanji">
  <rect width="512" height="512" rx="96" fill="#FFFFFF"/>
  <path d="M131 337c27 30 63 45 108 45 53 0 88-25 88-65 0-38-31-59-83-91-58-36-89-66-89-116 0-64 56-103 128-103 34 0 67 8 98 25l3 101h-11c-13-74-52-109-112-109-43 0-74 24-74 59 0 36 29 58 81 90 61 38 96 67 96 119 0 67-57 109-139 109-38 0-78-9-111-27l-8-111h12c6 31 14 55 12 74z" fill="#121416"/>
  <path d="M315 150c37-9 58-31 67-68 9 37 30 59 67 68-37 9-58 31-67 68-9-37-30-59-67-68z" fill="#B68D40"/>
  <path d="M339 160h54v192c0 61-34 101-91 101-26 0-48-8-65-23l9-17c13 11 27 16 44 16 32 0 49-27 49-78V160z" fill="#121416"/>
  <path d="M172 425h168" stroke="#B68D40" stroke-width="10" stroke-linecap="round"/>
</svg>
