<svg xmlns="http://www.w3.org/2000/svg" width="1200" height="630" viewBox="0 0 1200 630" role="img" aria-label="SatuJanji">
  <rect width="1200" height="630" fill="#FFF8F0"/>
  <rect x="64" y="64" width="1072" height="502" rx="32" fill="#FFFFFF"/>
  <circle cx="982" cy="142" r="76" fill="#B68D40" opacity=".16"/>
  <circle cx="166" cy="488" r="110" fill="#B68D40" opacity=".12"/>
  <rect x="92" y="92" width="1016" height="446" rx="24" fill="none" stroke="#B68D40" stroke-opacity=".22" stroke-width="2"/>
  <g transform="translate(116 118)">
    <rect width="72" height="72" rx="22" fill="#171717"/>
    <circle cx="36" cy="36" r="22" fill="#B68D40"/>
    <path d="M23 48c8-2 12-7 14-17 3 10 7 15 15 17-8 2-12 7-15 17-2-10-6-15-14-17z" fill="#FFF8F0"/>
  </g>
  <text x="214" y="164" fill="#171717" font-family="Inter, Arial, sans-serif" font-size="34" font-weight="700">SatuJanji</text>
  <text x="116" y="288" fill="#171717" font-family="Georgia, 'Times New Roman', serif" font-size="72" font-weight="700">Undangan Pernikahan Digital yang Elegan</text>
  <text x="118" y="368" fill="#555" font-family="Inter, Arial, sans-serif" font-size="28">Satu Janji, Satu Cerita, Satu Momen Bahagia.</text>
  <g transform="translate(118 430)">
    <rect width="174" height="48" rx="24" fill="#B68D40"/>
    <text x="32" y="31" fill="#FFFFFF" font-family="Inter, Arial, sans-serif" font-size="18" font-weight="700">Tanya Admin</text>
    <rect x="194" width="190" height="48" rx="24" fill="#FFF8F0" stroke="#E5D6BF"/>
    <text x="226" y="31" fill="#171717" font-family="Inter, Arial, sans-serif" font-size="18" font-weight="700">Lihat Template</text>
  </g>
</svg>
